<?xml version="1.0" encoding="UTF-8"?>
<svg version="1.1" xmlns="http://www.w3.org/2000/svg" width="737" height="692">
<path d="M0 0 C4.01549696 2.4083256 8.0629495 4.75901931 12.11254883 7.109375 C15.07784573 8.83267698 18.03669331 10.56668804 20.99511719 12.30175781 C27.71019651 16.22934454 34.46611223 20.08417731 41.22558594 23.93457031 C49.91976757 28.88806477 58.59056269 33.87835661 67.22558594 38.93457031 C76.41065703 44.31181409 85.63597056 49.61592996 94.88183594 54.88769531 C104.41611798 60.32390876 113.92940798 65.79552137 123.43164062 71.28759766 C130.79780431 75.54194211 138.17970782 79.76806086 145.56933594 83.98144531 C155.79743929 89.81325863 165.9914861 95.69959261 176.15234375 101.64794922 C183.77465614 106.10374102 191.43146692 110.49753227 199.10058594 114.87207031 C200.27493588 115.54250311 201.44925235 116.21299454 202.62353516 116.88354492 C209.72835297 120.9401721 209.72835297 120.9401721 216.83691406 124.99023438 C220.34462593 126.98702195 223.84765492 128.99190783 227.35058594 130.99707031 C228.92235596 131.88930298 228.92235596 131.88930298 230.52587891 132.79956055 C248.51191452 143.11863045 248.51191452 143.11863045 253.41308594 149.68457031 C254.26966797 150.79058594 254.26966797 150.79058594 255.14355469 151.91894531 C255.500625 152.58410156 255.85769531 153.24925781 256.22558594 153.93457031 C255.89558594 154.92457031 255.56558594 155.91457031 255.22558594 156.93457031 C255.5404528 159.25095741 255.5404528 159.25095741 256.14874458 161.80567837 C257.40291382 168.24360684 257.49408397 174.45430087 257.45504761 180.99684143 C257.45571895 182.90533313 257.45571895 182.90533313 257.45640385 184.85238022 C257.4573014 188.35416801 257.44567914 191.85581523 257.43181038 195.35757148 C257.4189997 199.14559909 257.41786954 202.93363388 257.41511536 206.72167969 C257.40774983 214.13043112 257.38919088 221.53911311 257.36614971 228.94783086 C257.34746998 234.97102881 257.33205281 240.99422637 257.31891251 247.01743889 C257.28126156 264.11179939 257.23523041 281.20610697 257.17823897 298.30041409 C257.17517207 299.22052305 257.17210516 300.140632 257.16894531 301.08862305 C257.16587294 302.00986062 257.16280056 302.93109819 257.15963508 303.88025206 C257.11032054 318.82016331 257.080966 333.76003855 257.06066273 348.70001484 C257.03956698 364.05733554 257.00366057 379.41455986 256.95231354 394.77181 C256.92380833 403.38707077 256.90136317 412.00224756 256.89483261 420.61755562 C256.88915582 427.94946789 256.86967903 435.28118412 256.83244805 442.61300678 C256.81385735 446.35101236 256.80158295 450.08874847 256.80669975 453.82680321 C256.81206084 457.88458504 256.78648423 461.94159734 256.75802612 465.99928284 C256.7644223 467.17273603 256.77081848 468.34618921 256.77740848 469.55520159 C256.65344508 480.27370931 253.3348505 489.7617074 246.22558594 497.93457031 C239.57449719 503.3701259 231.98747108 507.45803964 224.47558594 511.55957031 C216.34509372 516.05490115 208.26991474 520.61748508 200.28808594 525.37207031 C192.34400611 530.10110201 184.36395442 534.76134694 176.35058594 539.37207031 C167.92032657 544.2240271 159.50040925 549.09258632 151.10058594 553.99707031 C150.11703125 554.57134766 149.13347656 555.145625 148.12011719 555.73730469 C145.15498697 557.46923686 142.19021431 559.20177927 139.22558594 560.93457031 C125.81940713 568.77032697 112.39637911 576.57494743 98.94140625 584.32666016 C87.67761344 590.81956909 76.4500583 597.37399587 65.22558594 603.93457031 C61.2677312 606.24789069 57.30947931 608.5605278 53.35058594 610.87207031 C51.86981567 611.73674927 51.86981567 611.73674927 50.35913086 612.61889648 C41.98675486 617.50227359 33.5861638 622.33593031 25.18310547 627.16625977 C19.40963836 630.49337917 13.65723191 633.85241371 7.93261719 637.26269531 C7.32765915 637.62283722 6.72270111 637.98297913 6.09941101 638.35403442 C3.19051283 640.08693582 0.28467525 641.82457396 -2.61743164 643.56884766 C-15.85742303 651.47897958 -28.76605447 659.14255327 -44.81811523 655.46655273 C-51.47734243 653.4587118 -57.33310077 650.07191347 -63.33691406 646.62207031 C-64.97285522 645.69382446 -64.97285522 645.69382446 -66.6418457 644.74682617 C-76.03161077 639.40317287 -85.36439809 633.96095964 -94.68457031 628.49707031 C-100.99011871 624.80243694 -107.31738941 621.14609791 -113.64941406 617.49707031 C-114.72811768 616.87525879 -115.80682129 616.25344727 -116.91821289 615.61279297 C-120.20333658 613.71957132 -123.48881134 611.82696048 -126.77441406 609.93457031 C-140.44995721 602.05794442 -154.11402364 594.16336939 -167.74023438 586.20166016 C-178.30061688 580.03537978 -188.89568172 573.92961082 -199.4921875 567.82568359 C-206.00312663 564.07429007 -212.511046 560.31766037 -219.01953125 556.56201172 C-224.46026742 553.42274785 -229.90172883 550.28475535 -235.34472656 547.14941406 C-246.82038368 540.53724972 -258.28225256 533.90290799 -269.71386719 527.21484375 C-274.98448288 524.13422976 -280.26576458 521.07385511 -285.56347656 518.04003906 C-305.63758314 506.54404953 -305.63758314 506.54404953 -313.08691406 501.87207031 C-314.09367187 501.24171875 -315.10042969 500.61136719 -316.13769531 499.96191406 C-324.01999804 493.90129908 -326.40693296 486.56440945 -327.77441406 476.93457031 C-328.47928703 467.67185446 -328.33053321 458.36064327 -328.29731274 449.07662475 C-328.28818196 445.29540878 -328.30227115 441.51426408 -328.31323242 437.73306274 C-328.33093589 430.34556018 -328.32721482 422.95822098 -328.31558186 415.57071225 C-328.30651747 409.56381789 -328.30533646 403.55696905 -328.30967712 397.55006981 C-328.31029006 396.69242949 -328.31090299 395.83478916 -328.31153449 394.95115974 C-328.31281349 393.20846451 -328.31411035 391.4657693 -328.31542486 389.7230741 C-328.32680617 373.4171605 -328.31375444 357.11133715 -328.29222339 340.80543836 C-328.27434502 326.8333819 -328.27746736 312.86145837 -328.29589844 298.8894043 C-328.31733195 282.63385606 -328.32571785 266.37838667 -328.31344938 250.12282628 C-328.31217528 248.3877587 -328.31091779 246.65269112 -328.30967712 244.91762352 C-328.30906002 244.06409859 -328.30844292 243.21057366 -328.30780712 242.33118433 C-328.30436237 236.33436488 -328.31016342 230.33759573 -328.31959534 224.34078407 C-328.33084391 217.02882027 -328.32771505 209.7170281 -328.30647236 202.40508381 C-328.29600168 198.67893163 -328.29177159 194.95306505 -328.30506897 191.22691536 C-328.3192962 187.17884793 -328.30224353 183.13149387 -328.28234863 179.08345032 C-328.29573296 177.33610178 -328.29573296 177.33610178 -328.30938768 175.55345327 C-328.2043145 164.4933268 -325.64984786 154.05870202 -317.77441406 145.93457031 C-312.42393025 140.76215181 -306.40756271 137.15620898 -299.96191406 133.49707031 C-298.91583984 132.89507812 -297.86976563 132.29308594 -296.79199219 131.67285156 C-294.57744007 130.39912224 -292.36109104 129.1285126 -290.14306641 127.86083984 C-285.76210246 125.35570826 -281.3916744 122.8325247 -277.02124023 120.30908203 C-274.84613315 119.05331301 -272.67050936 117.79843855 -270.49438477 116.54443359 C-259.22861958 110.05189912 -248.00019781 103.49591124 -236.77441406 96.93457031 C-223.36823525 89.09881365 -209.94520723 81.2941932 -196.49023438 73.54248047 C-185.22644156 67.04957153 -173.99888642 60.49514475 -162.77441406 53.93457031 C-158.81655932 51.62124994 -154.85830744 49.30861282 -150.89941406 46.99707031 C-149.91223389 46.42061768 -148.92505371 45.84416504 -147.90795898 45.25024414 C-140.60830057 40.99255376 -133.287408 36.7726098 -125.96191406 32.55957031 C-117.06543809 27.4417051 -108.21813659 22.24768286 -99.39941406 16.99707031 C-89.88074341 11.33553418 -80.32139804 5.75271445 -70.71191406 0.24707031 C-70.13040588 -0.0872702 -69.54889771 -0.42161072 -68.94976807 -0.76608276 C-41.80186986 -16.36251693 -27.01255572 -16.21393262 0 0 Z M-135.77441406 132.93457031 C-136.36722168 133.25248535 -136.9600293 133.57040039 -137.57080078 133.89794922 C-146.84249486 138.87331242 -155.36859131 144.6268876 -163.77441406 150.93457031 C-164.60070312 151.54558594 -165.42699219 152.15660156 -166.27832031 152.78613281 C-171.97773632 157.1643644 -177.21551991 162.03193453 -182.46191406 166.93457031 C-183.17516846 167.59924316 -183.88842285 168.26391602 -184.62329102 168.94873047 C-189.30808755 173.37813126 -193.61499363 178.0111747 -197.77441406 182.93457031 C-198.25644287 183.49450684 -198.73847168 184.05444336 -199.23510742 184.63134766 C-234.72185024 226.15401355 -252.40865231 282.56073061 -248.27050781 336.95019531 C-243.42996803 389.35936569 -221.73264087 434.00585328 -185.77441406 471.93457031 C-184.70707031 473.06572266 -184.70707031 473.06572266 -183.61816406 474.21972656 C-178.39259029 479.60592248 -172.67093007 484.30272262 -166.77441406 488.93457031 C-165.81277344 489.68996094 -164.85113281 490.44535156 -163.86035156 491.22363281 C-119.78317872 525.06652805 -62.7275196 539.94719815 -7.64941406 532.74707031 C10.24462366 530.16413485 27.37954483 525.45400253 44.22558594 518.93457031 C44.92490234 518.66418945 45.62421875 518.39380859 46.34472656 518.11523438 C90.24260209 500.7893579 124.45422643 467.25792618 149.22558594 427.93457031 C146.10900786 425.49137001 142.86203347 423.47596065 139.44042969 421.48535156 C138.87532181 421.15546738 138.31021393 420.82558319 137.72798157 420.48570251 C135.8742567 419.40401528 134.01865216 418.32559517 132.16308594 417.24707031 C129.54124714 415.71839766 126.92048474 414.18788465 124.29980469 412.65722656 C123.63183868 412.26735565 122.96387268 411.87748474 122.27566528 411.47579956 C117.71372061 408.81097727 113.16281827 406.12815039 108.62011719 403.43066406 C108.01413193 403.07083939 107.40814667 402.71101471 106.78379822 402.34028625 C103.90377779 400.62926811 101.02504398 398.91612226 98.1472168 397.20141602 C92.22493977 393.68066882 86.27446037 390.23360723 80.22558594 386.93457031 C79.48695313 388.02253906 78.74832031 389.11050781 77.98730469 390.23144531 C71.6430041 399.46689967 65.15145189 407.99720092 57.22558594 415.93457031 C56.38898438 416.78277344 55.55238281 417.63097656 54.69042969 418.50488281 C29.91028179 442.35063599 -4.57168398 453.60104285 -38.52832031 453.14941406 C-74.06848379 452.07567296 -106.79223307 436.9548339 -131.77441406 411.93457031 C-134.94761542 408.39014507 -137.8978497 404.7224127 -140.77441406 400.93457031 C-141.36738281 400.16886719 -141.96035156 399.40316406 -142.57128906 398.61425781 C-152.76482047 384.8202589 -159.20348943 369.37489094 -163.77441406 352.93457031 C-163.96793457 352.23992676 -164.16145508 351.5452832 -164.36083984 350.82958984 C-169.3336969 331.82634143 -168.89619012 308.81079338 -163.77441406 289.93457031 C-163.608125 289.26780273 -163.44183594 288.60103516 -163.27050781 287.9140625 C-158.30159023 268.01078706 -149.02272484 250.58940945 -135.77441406 234.93457031 C-135.08605469 234.11085938 -134.39769531 233.28714844 -133.68847656 232.43847656 C-110.72361181 205.86721609 -78.24641374 192.00182631 -43.77441406 188.93457031 C-12.25478103 186.68874764 20.3763289 196.34863473 45.22558594 215.93457031 C45.79325684 216.38026367 46.36092773 216.82595703 46.94580078 217.28515625 C60.42977835 227.99442598 70.32072961 240.2690415 79.22558594 254.93457031 C83.33455881 253.67695962 86.8796558 252.15480839 90.58496094 249.98535156 C91.6057373 249.39173828 92.62651367 248.798125 93.67822266 248.18652344 C94.76635254 247.54650391 95.85448242 246.90648437 96.97558594 246.24707031 C98.71069624 245.23588672 100.44581185 244.22471212 102.1812439 243.21408081 C103.9857077 242.16239908 105.78880612 241.10840395 107.59179688 240.05419922 C113.41267239 236.65436301 119.25840545 233.29761716 125.10058594 229.93457031 C133.15681272 225.29266704 141.19836765 220.62647316 149.22558594 215.93457031 C133.77827279 176.26006089 90.29705041 144.24580809 53.22558594 126.93457031 C52.51192871 126.59925293 51.79827148 126.26393555 51.06298828 125.91845703 C31.802173 116.99959271 11.2994489 111.38680164 -9.77441406 108.93457031 C-10.51949219 108.84175781 -11.26457031 108.74894531 -12.03222656 108.65332031 C-54.3305859 103.82316509 -98.51314058 112.39613169 -135.77441406 132.93457031 Z " fill="#02589B" transform="translate(403.7744140625,25.0654296875)"/>
</svg>
