<?xml version="1.0" encoding="UTF-8"?>
<svg version="1.1" xmlns="http://www.w3.org/2000/svg" width="260" height="280">
<path d="M0 0 C85.8 0 171.6 0 260 0 C260 92.4 260 184.8 260 280 C174.2 280 88.4 280 0 280 C0 187.6 0 95.2 0 0 Z " fill="#FDFEFE" transform="translate(0,0)"/>
<path d="M0 0 C3.4878978 1.84343807 6.84751725 3.84346293 10.19555664 5.92480469 C11.43061665 6.66558665 12.66729792 7.40367174 13.90551758 8.13916016 C16.38226673 9.61377608 18.85115245 11.10028838 21.31420898 12.59765625 C25.98923186 15.43099366 30.74737135 18.11379152 35.50805664 20.79980469 C38.92812985 22.75221001 42.34341594 24.71291614 45.75805664 26.67480469 C46.79639648 27.27131836 47.83473633 27.86783203 48.90454102 28.48242188 C52.19205195 30.37473103 55.47558208 32.27377481 58.75805664 34.17480469 C60.29091309 35.05676514 60.29091309 35.05676514 61.85473633 35.95654297 C75.32546227 43.78388204 75.32546227 43.78388204 77.75805664 51.67480469 C78.16343784 54.59702183 78.17900644 57.47364659 78.16210938 60.4206543 C78.16897263 61.26714035 78.17583588 62.1136264 78.1829071 62.98576355 C78.20111413 65.76639886 78.19734638 68.54646667 78.19165039 71.32714844 C78.19621509 73.27096234 78.20152153 75.21477463 78.20753479 77.15858459 C78.21645391 81.22615122 78.21405638 85.29352138 78.20410156 89.36108398 C78.19261309 94.56068318 78.21282774 99.75960312 78.2420187 104.95911312 C78.26040873 108.97156547 78.26008265 112.98385587 78.25438118 116.9963398 C78.25422831 118.91279618 78.26024409 120.82926377 78.27267265 122.74567986 C78.28763411 125.43073406 78.27686825 128.11454394 78.25976562 130.79956055 C78.27426758 131.97421875 78.27426758 131.97421875 78.2890625 133.17260742 C78.21520654 138.74009156 76.85365061 143.01514229 73.75805664 147.67480469 C71.38085937 149.7434082 71.38085937 149.7434082 68.75415039 151.24121094 C67.78074707 151.8111377 66.80734375 152.38106445 65.80444336 152.96826172 C64.79913574 153.5314209 63.79382813 154.09458008 62.75805664 154.67480469 C60.83218499 155.80876576 58.90640438 156.94288145 56.98071289 158.07714844 C54.92884285 159.25817053 52.87539238 160.43645013 50.82055664 161.61230469 C49.16056641 162.56641235 49.16056641 162.56641235 47.46704102 163.53979492 C41.38172582 167.03623442 35.28695275 170.51612688 29.19165039 173.99511719 C28.56799088 174.35116531 27.94433136 174.70721344 27.30177307 175.0740509 C24.29361639 176.7911816 21.28467604 178.50690296 18.27392578 180.21948242 C12.38966692 183.57272875 6.54773425 186.97310861 0.78149414 190.52612305 C-4.36427762 193.44731708 -9.50795968 193.67554712 -15.24194336 192.67480469 C-20.0213366 190.56752676 -24.37735259 187.91026663 -28.81323242 185.1640625 C-33.42768271 182.33453428 -38.12486469 179.6447042 -42.80444336 176.92480469 C-44.32726929 176.03281372 -44.32726929 176.03281372 -45.88085938 175.12280273 C-52.02535775 171.52551685 -58.2018942 167.99378625 -64.41455078 164.515625 C-71.84485811 160.35470205 -79.27144606 156.19317047 -86.49194336 151.67480469 C-87.54897461 151.01480469 -88.60600586 150.35480469 -89.69506836 149.67480469 C-93.56889063 146.63278475 -95.25042871 143.4204214 -96.24194336 138.67480469 C-96.35669268 135.86534626 -96.41977425 133.07959664 -96.43481445 130.26953125 C-96.44299194 129.42348328 -96.45116943 128.5774353 -96.45959473 127.70574951 C-96.48438381 124.90898333 -96.50094815 122.1122677 -96.51538086 119.31542969 C-96.52070454 118.3582177 -96.52602821 117.40100571 -96.53151321 116.41478729 C-96.55821665 111.3481476 -96.5776005 106.28153231 -96.59204102 101.21484375 C-96.60537874 97.02842351 -96.63323249 92.84249084 -96.67407227 88.65625 C-96.72345175 83.59412452 -96.74816843 78.53244117 -96.7552681 73.47008514 C-96.76196966 71.54521608 -96.77716315 69.62035646 -96.80115891 67.69562531 C-96.83289782 64.9957832 -96.83283439 62.29763713 -96.82543945 59.59765625 C-96.84184479 58.80983765 -96.85825012 58.02201904 -96.87515259 57.21032715 C-96.80889216 51.27079369 -94.94258758 47.30339492 -91.24194336 42.67480469 C-88.99902344 40.83154297 -88.99902344 40.83154297 -86.69897461 39.62011719 C-85.39114014 38.9032373 -85.39114014 38.9032373 -84.05688477 38.171875 C-82.66348877 37.4308252 -82.66348877 37.4308252 -81.24194336 36.67480469 C-79.26310629 35.53254103 -77.28797759 34.38383447 -75.31616211 33.22949219 C-73.18783546 32.00192423 -71.05890673 30.77539971 -68.92944336 29.54980469 C-67.79369873 28.8952832 -66.6579541 28.24076172 -65.48779297 27.56640625 C-60.17891018 24.50814178 -54.86603582 21.45692173 -49.54663086 18.41699219 C-48.66910156 17.91538574 -47.79157227 17.4137793 -46.88745117 16.89697266 C-45.17526039 15.92112101 -43.46108339 14.94874552 -41.74487305 13.97998047 C-37.48408802 11.56795122 -33.28396139 9.09628454 -29.14038086 6.48730469 C-28.30627686 5.97329102 -27.47217285 5.45927734 -26.61279297 4.9296875 C-25.05554059 3.96661901 -23.51053445 2.98327575 -21.98242188 1.97460938 C-14.8751273 -2.3725473 -7.80385899 -3.18995004 0 0 Z " fill="#5F8DBC" transform="translate(139.241943359375,34.3251953125)"/>
<path d="M0 0 C0.6074707 0.26345215 1.21494141 0.5269043 1.84082031 0.79833984 C3.10326753 4.58568148 3.00454826 8.14323269 3.01782227 12.09008789 C3.02439346 12.93598984 3.03096466 13.78189178 3.03773499 14.65342712 C3.05746038 17.45563853 3.06913006 20.2577963 3.07910156 23.06005859 C3.08317709 24.01818766 3.08725262 24.97631672 3.09145164 25.96348 C3.11231102 31.03660491 3.12661226 36.1097028 3.13598633 41.18286133 C3.14703917 46.41389987 3.18142656 51.64451168 3.22115803 56.87539959 C3.24735042 60.90498119 3.25568059 64.93446163 3.25926781 68.96412086 C3.26412844 70.89176115 3.27572746 72.81939708 3.2943058 74.74695396 C3.31874889 77.45151562 3.31772268 80.15498 3.31079102 82.85961914 C3.32360107 83.64900879 3.33641113 84.43839844 3.34960938 85.25170898 C3.29763568 90.84372469 1.95585866 95.12057971 -1.15917969 99.79833984 C-3.53637695 101.86694336 -3.53637695 101.86694336 -6.16308594 103.36474609 C-7.13648926 103.93467285 -8.10989258 104.50459961 -9.11279297 105.09179688 C-10.11810059 105.65495605 -11.1234082 106.21811523 -12.15917969 106.79833984 C-14.08505134 107.93230091 -16.01083195 109.0664166 -17.93652344 110.20068359 C-19.98839348 111.38170568 -22.04184395 112.55998528 -24.09667969 113.73583984 C-25.20333984 114.37191162 -26.31 115.0079834 -27.45019531 115.66333008 C-33.53551051 119.15976958 -39.63028358 122.63966204 -45.72558594 126.11865234 C-46.34924545 126.47470047 -46.97290497 126.8307486 -47.61546326 127.19758606 C-50.62361994 128.91471675 -53.63256029 130.63043812 -56.64331055 132.34301758 C-62.52756941 135.6962639 -68.36950208 139.09664377 -74.13574219 142.6496582 C-79.28151394 145.57085223 -84.42519601 145.79908228 -90.15917969 144.79833984 C-94.93857292 142.69106192 -99.29458892 140.03380178 -103.73046875 137.28759766 C-108.34491903 134.45806944 -113.04210102 131.76823936 -117.72167969 129.04833984 C-119.24450562 128.15634888 -119.24450562 128.15634888 -120.7980957 127.24633789 C-126.94275112 123.64896007 -133.11943408 120.11712043 -139.33227539 116.63891602 C-146.80269723 112.45545507 -154.26870446 108.26886044 -161.53417969 103.73583984 C-163.15453125 102.7284375 -163.15453125 102.7284375 -164.80761719 101.70068359 C-167.38800681 99.61322554 -167.57512964 98.91044609 -168.15917969 95.79833984 C-157.23625903 89.32299455 -146.25156954 82.97902544 -135.15917969 76.79833984 C-131.928114 79.96185712 -128.9414556 83.21334987 -126.03417969 86.67333984 C-118.10426579 95.51065682 -106.05018201 103.02074532 -93.90771484 103.9753418 C-73.25452508 104.48992892 -58.05277972 101.67580328 -42.43261719 87.18896484 C-39.13015738 83.71627515 -36.56293649 79.93162897 -34.15917969 75.79833984 C-34.88838623 75.52199707 -35.61759277 75.2456543 -36.36889648 74.9609375 C-38.99457795 73.8669227 -41.3512364 72.63155837 -43.80371094 71.19677734 C-44.64482422 70.70693359 -45.4859375 70.21708984 -46.35253906 69.71240234 C-47.64901367 68.95056641 -47.64901367 68.95056641 -48.97167969 68.17333984 C-49.85533203 67.65771484 -50.73898438 67.14208984 -51.64941406 66.61083984 C-53.82112758 65.34302871 -55.99096149 64.07211636 -58.15917969 62.79833984 C-58.90167969 63.55759766 -59.64417969 64.31685547 -60.40917969 65.09912109 C-62.59599526 67.24555512 -64.71821527 69.15019523 -67.15917969 70.98583984 C-68.11824219 71.71867187 -68.11824219 71.71867187 -69.09667969 72.46630859 C-76.195794 77.05115325 -84.98393324 76.94577727 -93.15917969 75.79833984 C-100.84040192 73.10031054 -106.62491462 67.56592601 -110.40917969 60.44677734 C-114.07857016 52.21613065 -114.22153886 45.27713098 -111.06542969 36.86083984 C-107.51353598 28.77721967 -101.89742506 23.6459436 -93.78417969 20.42333984 C-85.65583739 17.78412365 -79.45283779 18.02588967 -71.59667969 21.45068359 C-67.19502684 23.88428974 -62.45207793 27.21254336 -60.15917969 31.79833984 C-56.97224113 31.15192398 -54.54254381 30.02340387 -51.73730469 28.39208984 C-50.88491211 27.90015137 -50.03251953 27.40821289 -49.15429688 26.90136719 C-48.2484082 26.37236816 -47.34251953 25.84336914 -46.40917969 25.29833984 C-44.50321649 24.19628119 -42.59696391 23.09472285 -40.69042969 21.99365234 C-39.74941406 21.44870117 -38.80839844 20.90375 -37.83886719 20.34228516 C-33.58443055 17.89102264 -29.2968392 15.50002142 -25.00488281 13.11523438 C-21.47073285 11.13925749 -17.98806455 9.09941118 -14.53417969 6.98583984 C-13.76235352 6.51742676 -12.99052734 6.04901367 -12.1953125 5.56640625 C-10.70372111 4.65749761 -9.21832123 3.73832609 -7.74023438 2.80761719 C-2.70334091 -0.25248299 -2.70334091 -0.25248299 0 0 Z " fill="#205B8F" transform="translate(214.1591796875,82.20166015625)"/>
<path d="M0 0 C6.27697788 4.93055664 12.7828718 10.841099 16.0625 18.25 C10.76199002 21.95194348 5.31221514 25.39525031 -0.25 28.6875 C-0.84828613 29.05359375 -1.44657227 29.4196875 -2.06298828 29.796875 C-6.32517609 32.2782611 -6.32517609 32.2782611 -9.22265625 32.14453125 C-11.58157035 30.91402708 -12.71630058 28.94897737 -14.3125 26.87890625 C-18.87909985 22.30132899 -26.50197498 19.16227018 -32.9375 18.9375 C-41.56292261 19.07775077 -49.07572159 22.39454152 -55.28125 28.3203125 C-58.94284468 32.58641574 -61.38874857 37.62529787 -61.9375 43.25 C-62.03224609 44.21679688 -62.03224609 44.21679688 -62.12890625 45.203125 C-62.55357804 53.03900457 -60.06316754 59.88180296 -55.25 66.0625 C-49.78627094 71.74154844 -44.63949204 74.43914569 -36.74291992 74.84204102 C-28.93202775 74.95681956 -22.28155756 74.23292581 -15.9375 69.25 C-13.37355528 66.73714838 -11.08950658 64.12171739 -8.9375 61.25 C-0.5253459 65.78226262 7.78026539 70.48620374 16.0625 75.25 C12.93152947 84.90824807 3.32253959 92.86659565 -5.1640625 97.8515625 C-19.24002525 104.94901978 -37.4292342 107.43185236 -52.6875 102.625 C-67.37143544 96.587336 -80.43910666 86.16521195 -86.6640625 71.26953125 C-93.32419974 54.37745844 -93.45448197 39.06906415 -86.72265625 22.20703125 C-80.92475317 10.56080854 -71.42220957 1.2144348 -59.9375 -4.75 C-59.04546875 -5.2553125 -58.1534375 -5.760625 -57.234375 -6.28125 C-39.04191759 -15.03697816 -16.18920285 -10.95610427 0 0 Z " fill="#FBFDFD" transform="translate(163.9375,82.75)"/>
<path d="M0 0 C3.23106569 3.16351728 6.21772408 6.41501003 9.125 9.875 C17.0549139 18.71231698 29.10899768 26.22240548 41.25146484 27.17700195 C61.96693844 27.69314091 77.08290526 24.85752177 92.7265625 10.32421875 C95.85380689 7.12712182 98.51260309 3.71087263 101 0 C102.9375 0.375 102.9375 0.375 105 1 C105.33 1.66 105.66 2.32 106 3 C108.23440564 4.2137151 110.45764511 5.34468709 112.75 6.4375 C116.94570632 8.46136249 121.03140909 10.55234856 125 13 C126.32608822 13.68096422 127.65686601 14.35330586 129 15 C129 15.66 129 16.32 129 17 C130.98 17.66 132.96 18.32 135 19 C134.06898846 22.68525401 133.13770268 23.9013848 130 26.1484375 C128.6748459 26.90513206 127.34064997 27.64611199 126 28.375 C124.44393088 29.25506773 122.88794678 30.13528576 121.33203125 31.015625 C120.47818848 31.49193359 119.6243457 31.96824219 118.74462891 32.45898438 C114.78292619 34.68334548 110.85683393 36.96791934 106.92675781 39.24755859 C101.29287296 42.51290186 95.64616489 45.75595244 90 49 C89.37780579 49.35759399 88.75561157 49.71518799 88.11456299 50.08361816 C84.27909162 52.28766574 80.44224174 54.48928665 76.60366821 56.68792725 C75.37987874 57.38910637 74.1563822 58.09079702 72.93319702 58.79302979 C71.22202741 59.77511389 69.50947533 60.75478798 67.796875 61.734375 C66.82073242 62.29350586 65.84458984 62.85263672 64.83886719 63.42871094 C57.87054429 67.28561893 53.01171686 69.61990865 45 68 C40.2276096 65.87772833 35.86450962 63.23541171 31.42871094 60.48925781 C26.81426065 57.65972959 22.11707866 54.96989951 17.4375 52.25 C16.42228271 51.65533936 15.40706543 51.06067871 14.36108398 50.44799805 C8.21642857 46.85062023 2.03974561 43.31878058 -4.1730957 39.84057617 C-11.64351754 35.65711523 -19.10952478 31.4705206 -26.375 26.9375 C-27.45523438 26.26589844 -28.53546875 25.59429687 -29.6484375 24.90234375 C-32.22882713 22.8148857 -32.41594995 22.11210625 -33 19 C-22.07707934 12.52465471 -11.09238985 6.1806856 0 0 Z " fill="#1A4772" transform="translate(79,159)"/>
<path d="M0 0 C4.34892416 3.17692595 7.86234613 6.62455607 11 11 C10.33097656 11.31710938 9.66195312 11.63421875 8.97265625 11.9609375 C0.498624 16.07852095 -7.54432095 20.77740748 -15.63378906 25.59423828 C-19.89075503 28.12329421 -24.16136484 30.62852333 -28.4375 33.125 C-29.26064697 33.61057373 -30.08379395 34.09614746 -30.93188477 34.59643555 C-31.69557373 35.04156494 -32.4592627 35.48669434 -33.24609375 35.9453125 C-34.26207642 36.54110107 -34.26207642 36.54110107 -35.29858398 37.14892578 C-37 38 -37 38 -39 38 C-39.33 38.66 -39.66 39.32 -40 40 C-43.88729377 31.68743878 -45.44600447 25.21974127 -42.75 16.3125 C-39.79446648 8.43107729 -35.01384301 2.45761745 -27.41796875 -1.265625 C-17.46173618 -5.22026843 -9.49132066 -5.23395978 0 0 Z " fill="#5F8DBC" transform="translate(145,105)"/>
<path d="M0 0 C2.71492344 1.18356127 5.19181973 2.61411709 7.73046875 4.140625 C12.78740579 7.1499679 17.88264734 10.06287311 23.04296875 12.890625 C22.54513868 17.02972642 21.59264931 18.8312426 18.41796875 21.515625 C17.43957031 22.37027344 17.43957031 22.37027344 16.44140625 23.2421875 C10.7370463 27.16277366 5.49890318 28.47608441 -1.26953125 28.453125 C-2.01428711 28.45070801 -2.75904297 28.44829102 -3.52636719 28.44580078 C-11.15266986 28.19225356 -16.17109919 25.49503977 -21.66796875 20.26171875 C-23.98978145 17.7025937 -24.95703125 16.40864473 -24.95703125 12.890625 C-24.43794189 12.60340576 -23.91885254 12.31618652 -23.3840332 12.02026367 C-21.01202738 10.7071276 -18.64077414 9.39263821 -16.26953125 8.078125 C-15.45291016 7.62630859 -14.63628906 7.17449219 -13.79492188 6.70898438 C-12.99892578 6.26748047 -12.20292969 5.82597656 -11.3828125 5.37109375 C-10.61018066 4.94489746 -9.83754883 4.51870117 -9.04150391 4.07958984 C-7.36235424 3.12181767 -5.73377676 2.07568443 -4.125 1.00390625 C-1.95703125 -0.109375 -1.95703125 -0.109375 0 0 Z " fill="#1B4772" transform="translate(130.95703125,130.109375)"/>
<path d="M0 0 C1.98 0 3.96 0 6 0 C6 2.31 6 4.62 6 7 C8.31 7 10.62 7 13 7 C13 8.98 13 10.96 13 13 C10.69 13 8.38 13 6 13 C6 15.31 6 17.62 6 20 C4.02 20 2.04 20 0 20 C0 17.69 0 15.38 0 13 C-2.31 13 -4.62 13 -7 13 C-7 11.02 -7 9.04 -7 7 C-4.69 7 -2.38 7 0 7 C0 4.69 0 2.38 0 0 Z " fill="#F3FBFD" transform="translate(199,120)"/>
<path d="M0 0 C1.98 0 3.96 0 6 0 C6 2.31 6 4.62 6 7 C8.31 7 10.62 7 13 7 C13 8.98 13 10.96 13 13 C10.69 13 8.38 13 6 13 C6 15.31 6 17.62 6 20 C4.02 20 2.04 20 0 20 C0 17.69 0 15.38 0 13 C-2.31 13 -4.62 13 -7 13 C-7 11.02 -7 9.04 -7 7 C-4.69 7 -2.38 7 0 7 C0 4.69 0 2.38 0 0 Z " fill="#F4FCFE" transform="translate(175,120)"/>
<path d="M0 0 C0.66 1.32 1.32 2.64 2 4 C2.66 3.67 3.32 3.34 4 3 C4 4.32 4 5.64 4 7 C4.99 7.66 5.98 8.32 7 9 C6.195625 8.814375 5.39125 8.62875 4.5625 8.4375 C3.716875 8.293125 2.87125 8.14875 2 8 C1.67 8.33 1.34 8.66 1 9 C-0.99954746 9.04254356 -3.00041636 9.04080783 -5 9 C-5.66 9 -6.32 9 -7 9 C-8.32 9 -9.64 9 -11 9 C-11.625 7.125 -11.625 7.125 -12 5 C-11.34 4.34 -10.68 3.68 -10 3 C-8.32995171 3.31595508 -6.66362417 3.65179959 -5 4 C-2.27497035 3.62277985 -2.27497035 3.62277985 0 3 C0 2.01 0 1.02 0 0 Z " fill="#969696" transform="translate(110,266)"/>
<path d="M0 0 C0.33 0.99 0.66 1.98 1 3 C2.98 3 4.96 3 7 3 C7 4.65 7 6.3 7 8 C7.66 8 8.32 8 9 8 C9 6.35 9 4.7 9 3 C9.99 3 10.98 3 12 3 C12.33 2.34 12.66 1.68 13 1 C13 1.66 13 2.32 13 3 C13.99 3 14.98 3 16 3 C16.33 2.34 16.66 1.68 17 1 C17 1.66 17 2.32 17 3 C17.66 3.33 18.32 3.66 19 4 C18.34 4 17.68 4 17 4 C17 5.32 17 6.64 17 8 C17.66 8.33 18.32 8.66 19 9 C18.01 9 17.02 9 16 9 C16 7.35 16 5.7 16 4 C15.01 4 14.02 4 13 4 C13 5.32 13 6.64 13 8 C13.66 8.33 14.32 8.66 15 9 C11.04 9 7.08 9 3 9 C3 7.35 3 5.7 3 4 C2.34 4 1.68 4 1 4 C1 5.65 1 7.3 1 9 C0.67 9 0.34 9 0 9 C0 6.03 0 3.06 0 0 Z " fill="#747474" transform="translate(60,266)"/>
<path d="M0 0 C2 1 2 1 3 2 C3.66 1.34 4.32 0.68 5 0 C7.125 0.375 7.125 0.375 9 1 C9 2.98 9 4.96 9 7 C5.01080675 8.1004671 1.98919325 8.1004671 -2 7 C-1.125 1.125 -1.125 1.125 0 0 Z " fill="#7B7B7B" transform="translate(192,267)"/>
<path d="M0 0 C1.1446875 0.2475 1.1446875 0.2475 2.3125 0.5 C5.03392445 1.00631153 6.40067115 0.74266539 9 0 C10 1 10 1 10.0625 4.0625 C10.041875 5.031875 10.02125 6.00125 10 7 C8.1875 7.625 8.1875 7.625 6 8 C5.01 7.34 4.02 6.68 3 6 C2.01 6.66 1.02 7.32 0 8 C-0.38063221 5.6739143 -0.71269945 3.33944736 -1 1 C-0.67 0.67 -0.34 0.34 0 0 Z " fill="#7E7E7E" transform="translate(167,267)"/>
<path d="M0 0 C2.01822917 0.06510417 4.03645833 0.13020833 6.0546875 0.1953125 C6.3846875 1.8453125 6.7146875 3.4953125 7.0546875 5.1953125 C3.64905898 5.97374188 0.54702994 6.29509371 -2.9453125 6.1953125 C-3.5703125 4.3203125 -3.5703125 4.3203125 -3.9453125 2.1953125 C-1.9453125 0.1953125 -1.9453125 0.1953125 0 0 Z " fill="#909090" transform="translate(121.9453125,268.8046875)"/>
<path d="M0 0 C0 3 0 3 -1.57421875 4.578125 C-2.62029297 5.40570313 -2.62029297 5.40570313 -3.6875 6.25 C-7.58324808 9.49530346 -10.23436539 12.765122 -13 17 C-13.33 16.34 -13.66 15.68 -14 15 C-11.25227445 8.64588467 -6.20654803 3.10327402 0 0 Z " fill="#6C91B4" transform="translate(117,104)"/>
<path d="M0 0 C3.125 0.375 3.125 0.375 6 1 C6 2.32 6 3.64 6 5 C6.66 5.33 7.32 5.66 8 6 C7.443125 5.814375 6.88625 5.62875 6.3125 5.4375 C3.600867 4.92448835 1.65628961 5.3359276 -1 6 C-1.625 4.125 -1.625 4.125 -2 2 C-1.34 1.34 -0.68 0.68 0 0 Z " fill="#878787" transform="translate(100,269)"/>
<path d="M0 0 C1.23556641 0.01740234 1.23556641 0.01740234 2.49609375 0.03515625 C3.32238281 0.04417969 4.14867188 0.05320312 5 0.0625 C5.63808594 0.07410156 6.27617188 0.08570313 6.93359375 0.09765625 C5.94359375 0.59265625 5.94359375 0.59265625 4.93359375 1.09765625 C4.93359375 2.74765625 4.93359375 4.39765625 4.93359375 6.09765625 C4.27359375 6.09765625 3.61359375 6.09765625 2.93359375 6.09765625 C2.93359375 5.10765625 2.93359375 4.11765625 2.93359375 3.09765625 C1.61359375 3.09765625 0.29359375 3.09765625 -1.06640625 3.09765625 C-1.06640625 3.75765625 -1.06640625 4.41765625 -1.06640625 5.09765625 C-0.07640625 5.42765625 0.91359375 5.75765625 1.93359375 6.09765625 C0.61359375 6.09765625 -0.70640625 6.09765625 -2.06640625 6.09765625 C-2.44859392 4.44150968 -2.78035727 2.77308601 -3.06640625 1.09765625 C-2.06640625 0.09765625 -2.06640625 0.09765625 0 0 Z " fill="#909090" transform="translate(82.06640625,268.90234375)"/>
<path d="M0 0 C1.32 0.33 2.64 0.66 4 1 C4 2.98 4 4.96 4 7 C2.68 7.33 1.36 7.66 0 8 C0 5.36 0 2.72 0 0 Z " fill="#A4A4A4" transform="translate(197,267)"/>
<path d="M0 0 C1.32 0.33 2.64 0.66 4 1 C4 2.98 4 4.96 4 7 C2.68 7.33 1.36 7.66 0 8 C0 5.36 0 2.72 0 0 Z " fill="#A5A5A5" transform="translate(173,267)"/>
<path d="M0 0 C0.66 0.33 1.32 0.66 2 1 C2 1.66 2 2.32 2 3 C2.31478446 4.33783393 2.64587656 5.67203709 3 7 C1.68 7.33 0.36 7.66 -1 8 C-1.625 5.6875 -1.625 5.6875 -2 3 C-1.34 2.01 -0.68 1.02 0 0 Z " fill="#7E7E7E" transform="translate(186,267)"/>
<path d="M0 0 C0.66 0.33 1.32 0.66 2 1 C2 1.66 2 2.32 2 3 C2.31478446 4.33783393 2.64587656 5.67203709 3 7 C1.68 7.33 0.36 7.66 -1 8 C-1.625 5.6875 -1.625 5.6875 -2 3 C-1.34 2.01 -0.68 1.02 0 0 Z " fill="#7D7D7D" transform="translate(162,267)"/>
<path d="M0 0 C0.66 0.33 1.32 0.66 2 1 C2 1.66 2 2.32 2 3 C2.31478446 4.33783393 2.64587656 5.67203709 3 7 C1.68 7.33 0.36 7.66 -1 8 C-1.625 5.6875 -1.625 5.6875 -2 3 C-1.34 2.01 -0.68 1.02 0 0 Z " fill="#7F7F7F" transform="translate(156,267)"/>
<path d="M0 0 C0.33 0.66 0.66 1.32 1 2 C1.99 2 2.98 2 4 2 C4.33 1.34 4.66 0.68 5 0 C5 0.66 5 1.32 5 2 C5.66 2.33 6.32 2.66 7 3 C6.34 3 5.68 3 5 3 C5 4.32 5 5.64 5 7 C5.66 7.33 6.32 7.66 7 8 C6.01 8 5.02 8 4 8 C4 6.35 4 4.7 4 3 C3.01 3 2.02 3 1 3 C1 4.32 1 5.64 1 7 C1.66 7.33 2.32 7.66 3 8 C2.01 8 1.02 8 0 8 C0 5.36 0 2.72 0 0 Z " fill="#4C4C4C" transform="translate(72,267)"/>
<path d="M0 0 C2 0.25 2 0.25 4 1 C4.33 1.99 4.66 2.98 5 4 C3.35 4.33 1.7 4.66 0 5 C-0.5625 3.0625 -0.5625 3.0625 -1 1 C-0.67 0.67 -0.34 0.34 0 0 Z " fill="#B0B0B0" transform="translate(119,270)"/>
<path d="M0 0 C3 1 3 1 4 3 C3.01 3 2.02 3 1 3 C1 3.66 1 4.32 1 5 C1.99 5.33 2.98 5.66 4 6 C2.68 6 1.36 6 0 6 C-0.38218767 4.34385343 -0.71395102 2.67542976 -1 1 C-0.67 0.67 -0.34 0.34 0 0 Z " fill="#5C5C5C" transform="translate(80,269)"/>
</svg>
