<?xml version="1.0" encoding="UTF-8"?>
<svg version="1.1" xmlns="http://www.w3.org/2000/svg" width="256" height="256">
<path d="M0 0 C7.63517656 8.46748872 7.77561998 17.45719574 7.68359375 28.37109375 C7.68374907 29.88127207 7.68524349 31.39145078 7.68800354 32.90162659 C7.68938164 36.05447182 7.67693098 39.2068589 7.65405273 42.35961914 C7.62569408 46.37516356 7.62840657 50.3899466 7.64114285 54.40554714 C7.64814143 57.52080134 7.64026305 60.63588358 7.62788582 63.7511158 C7.62341004 65.23049317 7.62300013 66.70988925 7.62695122 68.18926811 C7.6433637 79.74061682 7.11276446 90.55351109 -1.30859375 99.3046875 C-8.60495114 106.07867289 -16.88820922 108.84812635 -26.70141602 108.92358398 C-27.38658798 108.930271 -28.07175995 108.93695801 -28.7776947 108.94384766 C-30.26288154 108.95787021 -31.74808957 108.9697731 -33.23330879 108.97979546 C-35.59327418 108.99628144 -37.95308516 109.01952661 -40.31297302 109.04469299 C-47.02212733 109.11522671 -53.73134728 109.17526999 -60.44067383 109.22680664 C-64.54972179 109.25884423 -68.65859508 109.30018697 -72.76749992 109.34700203 C-74.32417554 109.36288366 -75.88089133 109.37526795 -77.43762398 109.38390923 C-96.97671283 109.42540416 -96.97671283 109.42540416 -113.78515625 118.46875 C-122.34163119 127.33405737 -123.83963106 138.78351969 -124.12890625 150.65234375 C-124.14968735 151.3749086 -124.17046844 152.09747345 -124.19187927 152.8419342 C-124.25665426 155.1237037 -124.3159203 157.40557667 -124.375 159.6875 C-124.41825397 161.24545291 -124.46187031 162.8033958 -124.50585938 164.36132812 C-124.61226039 168.15744922 -124.71372499 171.95367314 -124.8125 175.75 C-129.10393157 175.86742499 -133.39494273 175.93765996 -137.6875 176 C-138.89148438 176.03351563 -140.09546875 176.06703125 -141.3359375 176.1015625 C-151.94910101 176.21692297 -160.15844077 174.20766891 -168 166.79296875 C-181.41252268 151.67497444 -183.07752196 131.9286573 -183.1875 112.6875 C-183.19535522 112.01362244 -183.20321045 111.33974487 -183.21130371 110.64544678 C-183.37272359 92.81396649 -180.63979916 74.13500782 -167.8125 60.75 C-159.0323845 52.85309139 -150.28421903 50.58760368 -138.70776367 50.63647461 C-137.79995148 50.63632858 -136.89213928 50.63618256 -135.95681763 50.6360321 C-132.96467679 50.63672719 -129.97259868 50.64450069 -126.98046875 50.65234375 C-124.90253229 50.65420936 -122.82459538 50.65563259 -120.74665833 50.65663147 C-115.28372987 50.66044535 -109.82082809 50.67026601 -104.35791016 50.68133545 C-98.78092815 50.69157384 -93.20394182 50.69613429 -87.62695312 50.70117188 C-76.68879037 50.71188928 -65.75064741 50.72895216 -54.8125 50.75 C-54.8125 48.44 -54.8125 46.13 -54.8125 43.75 C-75.2725 43.75 -95.7325 43.75 -116.8125 43.75 C-116.895 37.76875 -116.9775 31.7875 -117.0625 25.625 C-117.09891602 23.74796387 -117.13533203 21.87092773 -117.17285156 19.93701172 C-117.18454362 18.43458192 -117.19473423 16.93213936 -117.203125 15.4296875 C-117.22358887 14.66148682 -117.24405273 13.89328613 -117.26513672 13.10180664 C-117.26914793 6.87440445 -115.2394529 3.49135361 -111.09375 -1.19140625 C-86.89990986 -23.20992304 -24.22610717 -22.08850948 0 0 Z M-97.8125 8.75 C-100.35607983 11.80229579 -100.82153645 13.24395901 -100.75 17.25 C-99.68537599 21.22459631 -98.95623796 23.07782273 -95.8125 25.75 C-91.49242052 27.05813622 -88.04995956 27.27657854 -83.875 25.5 C-81.49549204 23.48102355 -79.99859172 21.79603137 -79.44140625 18.6640625 C-79.31211172 14.20720385 -79.32124439 12.3705334 -82.1875 8.75 C-87.54696106 4.66660109 -92.37702661 4.4897641 -97.8125 8.75 Z " fill="#3773A4" transform="translate(182.8125,15.25)"/>
<path d="M0 0 C4.08911371 -0.12501994 8.17746465 -0.21499365 12.26806641 -0.2746582 C13.65498264 -0.29956805 15.04177087 -0.33351002 16.42822266 -0.37719727 C26.9503522 -0.7000785 34.4956693 0.45058139 42.76953125 7.2890625 C59.11631657 25.9800331 60.05168267 51.27871322 59 75 C57.71088456 90.40305499 53.38483066 105.19957271 41.8671875 116 C34.05341492 122.53416522 26.31080974 124.46725521 16.25756836 124.34057617 C15.32966492 124.34101425 14.40176147 124.34145233 13.44573975 124.34190369 C10.41021925 124.3398309 7.37526652 124.3165716 4.33984375 124.29296875 C2.22278647 124.28736742 0.10572529 124.28309986 -2.01133728 124.28010559 C-7.5597931 124.26869913 -13.10801005 124.23926824 -18.65637207 124.20599365 C-24.32752248 124.17520201 -29.99871181 124.16158087 -35.66992188 124.14648438 C-46.78005236 124.11439439 -57.89000625 124.0632491 -69 124 C-69 126.64 -69 129.28 -69 132 C-48.54 132 -28.08 132 -7 132 C-6.9175 137.630625 -6.835 143.26125 -6.75 149.0625 C-6.71358398 150.82601807 -6.67716797 152.58953613 -6.63964844 154.40649414 C-6.62795202 155.82436918 -6.61776245 157.24225778 -6.609375 158.66015625 C-6.58891113 159.38005737 -6.56844727 160.0999585 -6.54736328 160.8416748 C-6.54305125 167.17280906 -8.59056568 171.19883137 -12.75390625 176.0390625 C-27.8295496 189.25874112 -48.22225414 190.23375416 -67.375 190.25 C-68.44447372 190.25101212 -68.44447372 190.25101212 -69.53555298 190.25204468 C-87.97685982 190.22432897 -108.75376833 189.33758819 -123 176 C-128.89285689 170.05441061 -131.23859821 165.44238697 -131.29052734 156.88989258 C-131.29724457 156.19321472 -131.30396179 155.49653687 -131.31088257 154.77874756 C-131.32982096 152.48393541 -131.3337852 150.18941662 -131.3359375 147.89453125 C-131.34237043 146.2889545 -131.34909915 144.6833789 -131.35610962 143.07780457 C-131.3680735 139.71289354 -131.37179157 136.34808508 -131.37060547 132.9831543 C-131.37040281 128.6939306 -131.39765311 124.40537344 -131.43214989 120.11630726 C-131.45451235 116.79863024 -131.4584401 113.48111095 -131.45738602 110.16336632 C-131.45972993 108.58347982 -131.46848451 107.00358817 -131.48405075 105.42377663 C-131.589769 93.5817835 -130.53473213 83.74653085 -122.05078125 74.75390625 C-114.28066672 68.1086083 -104.47164387 65.76255764 -94.45751953 65.72875977 C-93.39721527 65.72091965 -93.39721527 65.72091965 -92.31549072 65.71292114 C-90.79545407 65.70275757 -89.27538335 65.69691424 -87.75531387 65.69503975 C-85.34061085 65.69134162 -82.92630607 65.67452204 -80.51168823 65.65428162 C-73.6515853 65.59919859 -66.79142546 65.56824829 -59.93115234 65.54370117 C-55.72020101 65.52773346 -51.50953521 65.49742309 -47.29873276 65.45893669 C-45.70494515 65.44737182 -44.11110632 65.44135709 -42.51727676 65.44125557 C-30.6997687 65.44022971 -19.46631822 65.18492432 -10.4453125 56.50390625 C-2.84436927 48.31682063 -0.91596702 39.31220725 -0.68359375 28.41796875 C-0.6524221 27.19670036 -0.6524221 27.19670036 -0.62062073 25.95075989 C-0.55550537 23.36308821 -0.49641792 20.77531947 -0.4375 18.1875 C-0.39427858 16.42772455 -0.35066315 14.66795872 -0.30664062 12.90820312 C-0.1998632 8.60556691 -0.09848982 4.30283357 0 0 Z M-42 151 C-44.39074278 154.39331233 -44.98961886 156.40827516 -45.0625 160.5625 C-43.68601936 165.01581971 -41.86331213 166.47398822 -38 169 C-34.55265623 170.37893751 -33.37888025 170.14397449 -29.875 168.8125 C-26.23010257 166.52589258 -26.23010257 166.52589258 -24 163 C-23.48385536 158.35469822 -23.32119239 156.15648705 -25.6875 152.125 C-31.15663794 147.09930568 -35.81427605 147.13392253 -42 151 Z " fill="#FED243" transform="translate(197,65)"/>
<path d="M0 0 C0.99 0.33 1.98 0.66 3 1 C1.8803014 2.00593243 0.7540588 3.0045849 -0.375 4 C-1.00148438 4.556875 -1.62796875 5.11375 -2.2734375 5.6875 C-4 7 -4 7 -6 7 C-4.61990379 3.66476748 -3.15049348 1.81392049 0 0 Z " fill="#3A78AE" transform="translate(21,71)"/>
<path d="M0 0 C0.66 1.32 1.32 2.64 2 4 C1.01 5.485 1.01 5.485 0 7 C-0.99 6.34 -1.98 5.68 -3 5 C-2.01 3.35 -1.02 1.7 0 0 Z " fill="#426BA1" transform="translate(31,184)"/>
</svg>
